<svg width="1280" height="720" viewBox="0 0 1280 720" fill="none" xmlns="http://www.w3.org/2000/svg">
<rect width="1280" height="720" fill="#1E1E1E"/>
<g clip-path="url(#clip0_2018_2)">
<rect x="384" y="104" width="512" height="512" rx="50" fill="#15121A"/>
<path d="M830.604 314.64C834.202 314.634 837.464 315.313 840.392 316.677C842.915 328.956 844.368 341.625 844.651 354.583C840.985 357.521 836.646 359.085 831.63 359.271H829.676C823.728 359.056 818.726 356.93 814.669 352.892C810.403 348.644 808.271 343.333 808.271 336.958C808.271 330.583 810.403 325.271 814.669 321.023C818.935 316.776 824.247 314.649 830.604 314.64ZM720.04 314.64C726.416 314.631 731.727 316.758 735.975 321.023C740.222 325.289 742.35 330.601 742.359 336.958C742.369 343.315 740.241 348.626 735.975 352.892C731.94 356.926 726.971 359.052 721.065 359.271H719.114C713.182 359.056 708.179 356.93 704.104 352.892C699.82 348.644 697.688 343.333 697.706 336.958C697.724 330.583 699.857 325.271 704.104 321.023C708.352 316.776 713.664 314.649 720.04 314.64ZM620.104 314.64C626.461 314.631 631.772 316.758 636.038 321.023C640.304 325.289 642.438 330.601 642.438 336.958C642.437 343.315 640.304 348.626 636.038 352.892C632.004 356.926 627.034 359.052 621.129 359.271H619.175C613.227 359.056 608.225 356.93 604.168 352.892C599.902 348.644 597.77 343.333 597.77 336.958C597.77 330.583 599.902 325.271 604.168 321.023C608.434 316.776 613.746 314.649 620.104 314.64ZM509.539 314.64C515.915 314.631 521.226 316.758 525.474 321.023C529.721 325.289 531.849 330.601 531.858 336.958C531.868 343.315 529.74 348.626 525.474 352.892C521.439 356.926 516.47 359.052 510.564 359.271H508.613C502.681 359.056 497.678 356.93 493.604 352.892C489.319 348.644 487.186 343.333 487.204 336.958C487.223 330.583 489.356 325.271 493.604 321.023C497.851 316.776 503.163 314.649 509.539 314.64ZM454.256 259.361C460.613 259.352 465.925 261.48 470.191 265.746C474.457 270.012 476.59 275.323 476.59 281.68C476.59 288.037 474.457 293.348 470.191 297.613C465.925 301.879 460.613 304.012 454.256 304.012C447.88 303.993 442.569 301.86 438.321 297.613C436.765 296.057 435.495 294.358 434.508 292.517C438.281 281.224 442.984 270.357 448.528 260.008C450.333 259.579 452.242 259.364 454.256 259.361ZM564.821 259.361C571.197 259.352 576.508 261.481 580.756 265.746C585.003 270.012 587.131 275.323 587.141 281.68C587.15 288.037 585.022 293.348 580.756 297.613C576.49 301.879 571.179 304.012 564.821 304.012C558.482 303.993 553.17 301.86 548.886 297.613C544.601 293.366 542.468 288.055 542.486 281.68C542.505 275.304 544.638 269.993 548.886 265.746C553.133 261.499 558.445 259.371 564.821 259.361ZM664.758 259.361C671.115 259.352 676.427 261.481 680.692 265.746C684.958 270.012 687.092 275.323 687.092 281.68C687.092 288.037 684.958 293.348 680.692 297.613C676.427 301.879 671.115 304.012 664.758 304.012C658.382 303.993 653.07 301.86 648.822 297.613C644.575 293.366 642.447 288.055 642.438 281.68C642.428 275.304 644.556 269.993 648.822 265.746C653.088 261.499 658.4 259.371 664.758 259.361ZM775.322 259.361C781.698 259.352 787.009 261.481 791.257 265.746C795.504 270.012 797.633 275.323 797.643 281.68C797.652 288.037 795.523 293.348 791.257 297.613C786.991 301.879 781.68 304.012 775.322 304.012C768.983 303.993 763.671 301.86 759.387 297.613C755.102 293.366 752.97 288.055 752.988 281.68C753.007 275.304 755.139 269.993 759.387 265.746C763.634 261.499 768.946 259.371 775.322 259.361ZM509.539 204.083C515.915 204.074 521.226 206.202 525.474 210.468C529.721 214.733 531.849 220.045 531.858 226.401C531.868 232.758 529.74 238.07 525.474 242.336C521.208 246.601 515.896 248.734 509.539 248.734C503.2 248.716 497.888 246.583 493.604 242.336C489.319 238.089 487.186 232.777 487.204 226.401C487.223 220.026 489.356 214.715 493.604 210.468C497.851 206.221 503.163 204.092 509.539 204.083ZM620.104 204.083C626.461 204.074 631.772 206.202 636.038 210.468C640.304 214.733 642.437 220.045 642.438 226.401C642.438 232.758 640.304 238.07 636.038 242.336C631.772 246.601 626.461 248.734 620.104 248.734C613.746 248.716 608.434 246.583 604.168 242.336C599.902 238.089 597.77 232.777 597.77 226.401C597.77 220.026 599.902 214.715 604.168 210.468C608.434 206.221 613.746 204.092 620.104 204.083ZM720.04 204.083C726.416 204.074 731.727 206.202 735.975 210.468C740.222 214.733 742.35 220.045 742.359 226.401C742.369 232.758 740.241 238.07 735.975 242.336C731.709 246.601 726.397 248.734 720.04 248.734C713.701 248.716 708.389 246.583 704.104 242.336C699.82 238.089 697.688 232.777 697.706 226.401C697.725 220.026 699.857 214.715 704.104 210.468C708.352 206.221 713.664 204.092 720.04 204.083ZM581.088 155.531C585.114 159.738 587.132 164.935 587.141 171.124C587.15 177.481 585.022 182.792 580.756 187.058C576.49 191.323 571.178 193.456 564.821 193.456C558.482 193.456 553.17 191.323 548.886 187.058C544.601 182.792 542.468 177.481 542.486 171.124C542.488 170.654 542.502 170.189 542.526 169.73C554.766 163.8 567.667 159.02 581.088 155.531ZM657.062 150C664.436 150.796 671.695 151.972 678.82 153.51C679.465 154.027 680.09 154.587 680.692 155.189C684.958 159.455 687.092 164.767 687.092 171.124C687.092 177.481 684.958 182.792 680.692 187.058C676.427 191.323 671.115 193.456 664.758 193.456C658.382 193.456 653.07 191.323 648.822 187.058C644.575 182.792 642.447 177.481 642.438 171.124C642.428 164.767 644.556 159.455 648.822 155.189C651.235 152.777 653.981 151.048 657.062 150Z" fill="#A379D8"/>
<path d="M639.5 569.791C662.734 569.791 685.09 566.027 705.989 559.075C703.978 555.704 702.979 551.832 702.991 547.459C703.01 541.084 705.142 535.772 709.39 531.524C713.637 527.277 718.949 525.149 725.325 525.14C731.701 525.131 737.012 527.259 741.26 531.524C743.853 534.128 745.654 537.123 746.667 540.507C759.25 533.049 770.99 524.318 781.709 514.491C781.345 514.506 780.977 514.513 780.606 514.513C774.268 514.494 768.956 512.361 764.672 508.114C760.388 503.867 758.254 498.556 758.272 492.181C758.291 485.805 760.424 480.493 764.672 476.246C768.919 471.999 774.231 469.871 780.606 469.861C786.982 469.852 792.295 471.98 796.542 476.246C800.744 480.466 802.87 485.71 802.924 491.977C811.697 481.184 819.422 469.507 825.945 457.098C823.76 456.057 821.763 454.637 819.954 452.836C815.688 448.589 813.555 443.278 813.555 436.902C813.555 430.527 815.688 425.215 819.954 420.968C824.22 416.721 829.531 414.592 835.889 414.583C838.209 414.58 840.389 414.864 842.431 415.43C847.364 397.558 850 378.732 850 359.291H780.606C786.982 359.291 792.294 361.424 796.542 365.689C800.789 369.955 802.918 375.267 802.927 381.624C802.936 387.981 800.808 393.292 796.542 397.558C792.276 401.823 786.964 403.956 780.606 403.956C774.268 403.956 768.956 401.823 764.672 397.558C760.388 393.292 758.254 387.981 758.272 381.624C758.291 375.267 760.424 369.955 764.672 365.689C768.919 361.424 774.231 359.291 780.606 359.291H670.043C676.4 359.291 681.712 361.424 685.978 365.689C690.243 369.955 692.377 375.267 692.377 381.624C692.377 387.981 690.243 393.292 685.978 397.558C681.712 401.823 676.4 403.956 670.043 403.956C663.667 403.956 658.355 401.823 654.107 397.558C649.86 393.292 647.732 387.981 647.723 381.624C647.713 375.267 649.842 369.955 654.107 365.689C658.373 361.424 663.686 359.291 670.043 359.291H570.106C576.482 359.291 581.794 361.424 586.042 365.689C590.289 369.955 592.418 375.267 592.427 381.624C592.436 387.981 590.308 393.292 586.042 397.558C581.776 401.823 576.464 403.956 570.106 403.956C563.768 403.956 558.456 401.823 554.172 397.558C549.888 393.292 547.754 387.981 547.772 381.624C547.791 375.267 549.924 369.955 554.172 365.689C558.419 361.424 563.731 359.291 570.106 359.291H459.543C465.9 359.291 471.212 361.424 475.478 365.689C479.743 369.955 481.877 375.267 481.877 381.624C481.877 387.981 479.743 393.292 475.478 397.558C471.212 401.823 465.9 403.956 459.543 403.956C453.167 403.956 447.855 401.823 443.607 397.558C439.36 393.292 437.232 387.981 437.223 381.624C437.213 375.267 439.342 369.955 443.607 365.689C447.873 361.424 453.186 359.291 459.543 359.291H429C429 399.855 440.474 437.738 460.353 469.874C466.352 470.04 471.394 472.163 475.478 476.246C479.743 480.512 481.877 485.824 481.877 492.181C481.877 494.246 481.649 496.2 481.199 498.044C490.019 508.098 499.781 517.305 510.348 525.526C511.777 525.272 513.269 525.142 514.825 525.14C521.201 525.131 526.512 527.259 530.76 531.524C533.988 534.767 535.991 538.614 536.771 543.064C561.288 556.799 588.836 565.77 618.159 568.723C614.889 567.692 611.987 565.915 609.454 563.393C605.188 559.145 603.055 553.834 603.055 547.459C603.055 541.084 605.188 535.772 609.454 531.524C613.72 527.277 619.031 525.149 625.389 525.14C631.746 525.13 637.058 527.259 641.324 531.524C645.59 535.79 647.723 541.102 647.723 547.459C647.723 553.816 645.59 559.127 641.324 563.393C637.908 566.809 633.82 568.857 629.062 569.537C632.52 569.706 636 569.791 639.5 569.791ZM514.825 459.234C508.486 459.216 503.174 457.083 498.89 452.836C494.605 448.589 492.473 443.278 492.491 436.902C492.51 430.527 494.642 425.215 498.89 420.968C503.137 416.721 508.449 414.592 514.825 414.583C521.201 414.574 526.512 416.702 530.76 420.968C535.007 425.233 537.135 430.545 537.145 436.902C537.154 443.259 535.026 448.57 530.76 452.836C526.494 457.101 521.182 459.234 514.825 459.234ZM625.389 459.234C619.031 459.216 613.72 457.083 609.454 452.836C605.188 448.589 603.055 443.278 603.055 436.902C603.055 430.527 605.188 425.215 609.454 420.968C613.72 416.721 619.031 414.592 625.389 414.583C631.746 414.574 637.058 416.702 641.324 420.968C645.59 425.233 647.723 430.545 647.723 436.902C647.723 443.259 645.59 448.57 641.324 452.836C637.058 457.102 631.746 459.234 625.389 459.234ZM725.325 459.234C718.986 459.216 713.674 457.083 709.39 452.836C705.105 448.589 702.973 443.278 702.991 436.902C703.01 430.527 705.142 425.215 709.39 420.968C713.637 416.721 718.949 414.592 725.325 414.583C731.701 414.574 737.012 416.702 741.26 420.968C745.507 425.233 747.635 430.545 747.645 436.902C747.654 443.259 745.526 448.57 741.26 452.836C736.994 457.101 731.682 459.234 725.325 459.234ZM570.106 514.513C563.768 514.494 558.456 512.361 554.172 508.114C549.888 503.867 547.754 498.556 547.772 492.181C547.791 485.805 549.924 480.493 554.172 476.246C558.419 471.999 563.731 469.871 570.106 469.861C576.482 469.852 581.795 471.98 586.042 476.246C590.289 480.512 592.418 485.824 592.427 492.181C592.436 498.537 590.308 503.849 586.042 508.114C581.776 512.38 576.464 514.513 570.106 514.513ZM670.043 514.513C663.667 514.494 658.355 512.361 654.107 508.114C649.86 503.867 647.732 498.556 647.723 492.181C647.713 485.805 649.841 480.493 654.107 476.246C658.373 471.999 663.686 469.871 670.043 469.861C676.4 469.852 681.712 471.981 685.978 476.246C690.243 480.512 692.377 485.824 692.377 492.181C692.377 498.538 690.243 503.849 685.978 508.114C681.712 512.38 676.4 514.513 670.043 514.513Z" fill="#A379D8"/>
</g>
<defs>
<clipPath id="clip0_2018_2">
<rect width="512" height="512" fill="white" transform="translate(384 104)"/>
</clipPath>
</defs>
</svg>
